<svg width="1000" height="1153" viewBox="0 0 1000 1153" fill="none" xmlns="http://www.w3.org/2000/svg">
<path d="M588.033 1005.76C588.033 920.865 631.132 858.747 695.332 858.747C759.532 858.747 802.63 920.432 802.63 1005.76C802.63 1091.09 759.965 1152.34 695.332 1152.34C630.698 1152.34 588.033 1091.09 588.033 1005.76ZM757.855 1005.76C757.855 933.093 739.702 872.679 695.332 872.679C650.961 872.679 632.808 933.093 632.808 1005.76C632.808 1078.43 650.961 1137.98 695.332 1137.98C739.702 1137.98 757.855 1078.4 757.855 1005.76Z" fill="black"/>
<path d="M886.804 1116.88V877.362H867.784C835.265 877.362 820.061 897.625 817.517 940.319H814.135V863.025H1000V940.319H996.618C994.941 897.654 979.303 877.362 946.784 877.362H927.359V1116.88C927.359 1137.57 933.69 1144.34 953.982 1144.34V1148.12H860.211V1144.34C880.474 1144.34 886.833 1137.57 886.833 1116.88H886.804Z" fill="black"/>
<path d="M567.857 1122.77L505.767 1009.98C540.83 1002.81 564.475 980.412 564.475 939.018C564.475 885.803 523.081 865.077 472.38 865.077H375.228V868.893C395.491 868.893 401.416 875.657 401.416 896.353V1118.99C401.416 1138.58 396.069 1146.88 378.292 1146.36C366.845 1146.01 360.572 1136.62 351.062 1108.84L267.004 860.857H263.622L185.056 1097.86C173.262 1132.77 164.966 1142.78 148.981 1145.55C146.177 1146.04 141.899 1146.45 139.847 1146.45C119.584 1146.36 113.253 1136.33 113.253 1115.63V879.443H132.678C165.197 879.443 180.835 899.706 182.512 942.4H185.894V865.106H0V942.4H3.38199C5.92571 899.735 21.1302 879.443 53.6494 879.443H72.6695V1118.96C72.6695 1139.65 66.3391 1146.42 46.1049 1146.42H39.2831V1150.2H217.17V1146.42H215.06C199.422 1146.42 194.797 1136.71 194.797 1126.16C194.797 1119.39 196.907 1109.68 200.289 1099.53L210.84 1068.29H294.898L307.154 1104.19C310.97 1115.17 312.646 1121.93 312.646 1128.27C312.646 1139.25 307.992 1146.42 291.95 1146.42H289.406V1150.2H468.623V1146.42C448.36 1146.42 442 1139.65 442 1118.96V1012.93H464.402L538.344 1150.23H594.537V1146.45C585.663 1146.45 576.384 1138.41 567.914 1122.8L567.857 1122.77ZM215.002 1054.35L252.175 941.996L290.186 1054.35H215.002ZM441.971 999.432V879.039H468.16C499.407 879.039 521.376 894.677 521.376 939.018C521.376 983.36 499.407 999.432 467.293 999.432H441.942H441.971Z" fill="black"/>
<path d="M516.491 423.655C519.786 424.927 523.139 425.187 526.116 425.418C527.62 425.534 529.065 425.649 530.539 425.91C530.741 425.91 530.944 425.91 531.146 425.91C538.055 425.91 544.183 423.742 549.819 419.29C559.676 411.514 563.752 400.53 566.671 389.806C569.62 379.024 565.486 368.994 554.444 359.975C551.872 357.865 546.524 354.512 539.876 355.842C537.303 356.362 533.979 357.113 530.857 358.414C518.312 363.646 510.71 371.393 507.646 382.059C505.478 389.575 504.582 397.986 504.871 407.757C505.102 415.301 509.12 420.793 516.52 423.626L516.491 423.655ZM519.873 378.041C520.422 377.319 521.029 376.712 521.607 376.047C522.127 375.44 522.59 374.804 523.168 374.255C524.151 373.33 525.278 372.549 526.463 371.855C526.695 371.711 526.897 371.509 527.128 371.364C528.602 370.584 530.25 370.005 532.129 369.688C534.384 369.283 537.245 368.763 539.442 367.433C541.321 366.306 542.448 365.641 544.356 366.161L544.703 366.248C547.478 366.941 550.079 367.606 551.496 369.803C553.866 373.445 556.005 377.348 558.144 381.279C558.925 382.695 559.04 384.227 558.462 385.355C556.988 388.158 555.976 391.136 554.993 394.026C553.606 398.131 552.276 402.004 549.761 405.444C548.663 406.976 547.507 408.277 545.599 409.635C545.512 408.826 545.426 408.075 545.339 407.352C545.05 404.866 544.819 402.727 544.819 400.617C544.819 396.425 543.171 392.87 539.673 389.69L539.269 389.315C537.881 388.072 536.465 386.771 535.251 385.412C532.909 382.811 529.932 381.51 526.406 381.51C525.423 381.51 524.411 381.597 523.37 381.799C522.33 382.001 521.318 382.29 520.306 382.58C519.266 382.869 518.254 383.187 517.185 383.36C517.127 383.302 516.982 383.071 516.953 382.666C516.953 382.608 516.953 382.493 516.953 382.406C517.936 380.874 518.89 379.371 519.902 378.012L519.873 378.041Z" fill="black"/>
<path d="M452.406 465.366C459.806 471.639 467.466 478.085 476.34 482.854C484.347 487.161 492.759 489.213 502.356 489.213C504.264 489.213 506.2 489.127 508.195 488.982C511.056 489.387 514.41 488.52 517.965 487.566C520.335 486.93 522.763 486.294 525.249 485.976C534.557 484.704 540.454 478.634 546.177 472.766C547.883 471.003 548.808 468.661 549.704 466.378L550.137 465.308C550.831 463.574 550.686 461.753 549.704 460.336C548.75 458.978 547.189 458.197 545.194 458.197C545.137 458.197 545.05 458.197 544.992 458.197C540.367 458.313 535.626 458.429 531.32 461.261C524.556 465.713 516.606 468.632 507.01 470.164C502.645 470.858 497.529 471.321 493.077 469.5L491.516 468.864C483.827 465.713 475.878 462.447 469.721 456.636C468.449 455.422 466.946 454.526 465.501 453.659C464.316 452.936 463.217 452.272 462.234 451.462C459.344 449.092 456.135 449.555 451.106 453.052C449.747 454.006 448.909 455.683 448.822 457.677C448.706 460.423 449.92 463.256 452.031 465.048L452.435 465.366H452.406Z" fill="black"/>
<path d="M768.261 642.473C768.117 639.062 767.972 635.824 768.348 632.558C768.724 629.638 768.435 626.806 768.146 624.002C767.914 621.747 767.683 619.579 767.914 617.527C768.146 615.128 767.828 612.815 767.51 610.445C767.394 609.635 767.278 608.826 767.221 607.988C766.961 604.548 766.671 601.166 766.382 597.755C765.775 590.442 764.995 581.366 764.504 572.78C764.012 563.877 763.925 556.217 764.272 549.424C764.619 542.429 764.243 535.318 763.896 528.728C763.492 521.415 763.029 513.119 763.781 505.256C763.81 504.823 763.868 504.158 763.752 503.377C763 498.492 762.654 493.26 762.336 488.346C761.96 482.565 761.526 476.003 760.283 469.702C759.618 466.349 759.329 463.111 759.416 460.076C759.561 451.636 757.768 443.802 756.179 437.934C755.629 435.766 755.167 433.685 755.485 431.864C756.901 423.453 757.075 415.792 756.034 408.479C755.947 407.757 756.092 406.687 756.265 405.56L756.439 404.201C756.583 402.727 756.786 401.224 756.959 399.75L757.19 397.813C757.682 393.795 758.202 389.661 758.433 385.499C758.838 378.07 759.561 371.277 760.601 364.802L760.746 363.906C761.497 359.368 762.364 354.223 762.307 349.078C762.249 343.499 762.625 338.267 763.492 333.122C764.099 329.306 764.301 325.143 764.07 320.75C763.81 314.882 764.07 309.187 764.764 303.811C765.486 298.232 765.226 293.723 763.896 289.618C762.567 285.369 762.336 281.669 763.203 277.882C763.665 275.743 763.55 273.72 763.463 271.754L763.405 270.685C763.289 266.811 763.116 262.909 762.943 259.036L762.885 257.908C762.625 251.665 762.336 244.698 762.249 238.021C762.104 228.713 762.191 219.232 762.249 210.069L762.307 201.831C762.307 201.021 762.307 200.212 762.307 199.403V198.651C762.278 195.356 762.249 192.234 762.798 189.344C765.168 177.637 764.186 166.103 763.029 156.217C762.682 153.038 762.307 149.887 761.931 146.736L761.353 141.996C760.457 134.336 759.503 126.386 758.751 118.553C758.462 115.46 758.26 112.367 758.086 109.274L758 107.627C757.537 99.5329 757.075 91.1501 755.167 82.8252C755.138 82.6807 755.109 82.3627 755.196 81.9581C756.092 77.3331 755.427 72.8816 754.82 68.9504C754.415 66.2332 754.04 63.6895 754.155 61.1747C754.329 58.1107 753.606 55.249 752.912 52.3873C752.681 51.4623 752.45 50.5373 752.276 49.728C750.6 40.9117 747.247 34.4656 741.726 29.436C740.251 28.1063 738.951 26.4298 737.563 24.6665C736.956 23.8861 736.349 23.1056 735.655 22.2384C735.424 21.9783 735.193 21.6892 734.73 21.0533C733.921 19.9838 732.938 18.6541 731.435 17.5268C723.862 12.0347 716.202 8.3347 707.992 6.19566C688.539 1.13713 667.495 -0.539415 641.74 0.934786C638.387 1.10822 635.699 1.13713 632.982 1.0215L625.929 0.674633C616.939 0.212139 607.66 -0.250356 598.439 0.183233C585.402 0.819163 572.048 1.07932 559.185 1.33947H557.104C539.529 1.71525 521.347 2.06212 503.31 3.27617C487.469 4.34568 471.166 4.95271 456.742 5.47301L437 6.25347C435.583 6.31129 434.196 6.34019 432.75 6.398C430.264 6.45582 427.779 6.51363 425.35 6.74487L421.968 7.00503C413.846 7.52533 404.914 7.09175 396.127 6.68706C389.941 6.398 382.223 6.02223 375.372 6.16676L364.359 6.42691C345.483 6.8894 325.972 7.3519 306.576 7.03393C290.851 6.65816 275.733 9.83781 260.182 16.6885C251.077 20.6486 245.093 26.8056 241.914 35.5063C239.023 43.3109 237.289 51.8959 236.71 60.9724L236.335 66.7246C235.525 78.1425 234.687 89.9361 236.566 101.816C236.566 101.874 236.566 102.105 236.508 102.799C236.45 103.464 236.421 104.129 236.421 104.823C236.566 107.944 237.028 112.049 237.433 115.836C237.953 120.49 238.503 125.288 238.503 128.699C238.532 138.527 238.589 148.673 239.485 158.819C240.092 165.554 240.208 170.959 239.803 175.816C239.11 184.719 239.254 193.708 240.266 203.247L240.382 204.288C240.526 205.444 240.7 206.745 240.642 207.814C240.237 216.631 241.22 225.62 242.058 233.57C242.289 235.737 242.521 237.905 242.723 240.131L243.012 242.877C243.185 244.554 243.359 246.115 243.359 247.589C243.272 253.544 243.157 259.469 243.041 265.453L242.752 280.397C242.723 282.941 242.781 285.456 242.867 287.999C243.012 292.653 243.157 297.452 242.492 301.932C240.121 317.397 239.572 332.514 239.139 349.222C239.139 349.627 239.139 350.06 239.139 350.812C239.139 351.274 239.196 351.737 239.139 352.084C237.953 358.472 238.474 364.542 239.023 370.468L239.399 374.948C240.266 384.979 241.162 395.327 240.208 405.502C239.977 407.728 240.006 410.098 240.237 412.584C241.017 420.446 240.41 428.569 239.832 436.402C239.37 442.675 238.907 449.179 239.081 455.712C239.167 458.4 239.023 461.261 238.878 464.21C238.792 466.031 238.705 467.823 238.676 469.644L238.618 472.101C238.445 480.426 238.3 489.011 236.71 497.191C235.872 501.47 235.988 505.603 236.103 509.708L236.306 514.419C236.566 520.894 236.855 527.629 236.479 534.075L236.393 535.318C236.046 541.128 235.67 547.141 235.93 553.153C236.19 559.628 236.508 566.941 234.225 573.677C233.82 575.035 233.618 576.596 233.618 578.475C233.618 589.575 233.473 600.559 233.097 611.11C232.808 620.36 232.577 629.609 232.346 638.888L232.288 642.212C232.201 645.594 232.057 649.005 231.883 652.387L231.825 653.283C231.392 661.782 230.9 671.407 231.854 680.831C231.999 682.247 232.172 683.664 232.375 685.224C233.068 690.919 233.733 696.295 232.664 701.527C232.288 703.377 232.548 705.17 232.721 706.441L232.866 707.366C233.704 714.217 234.774 721.241 235.728 727.427L235.843 728.236C236.479 732.428 236.479 739.654 236.45 746.621C236.45 752.546 236.421 758.674 236.826 762.461C236.884 763.502 236.942 764.542 237 765.641L237.086 766.855C237.231 769.398 237.375 772.029 237.26 774.486L237.202 775.989C236.739 784.892 235.988 799.836 250.065 809.144C256.482 813.422 267.206 812.96 277.699 812.468C280.619 812.353 283.509 812.208 286.111 812.208H288.481C291.256 812.237 294.378 812.266 296.546 812.584C302.5 813.48 308.628 813.451 313.542 813.393H314.41C319.324 813.393 324.469 813.393 329.585 814.087H330.105C342.564 814.203 405.376 814.636 417.719 813.653C423.645 813.191 428.212 812.902 432.75 813.191C439.023 813.567 445.296 813.971 451.568 814.376C459.748 814.925 467.929 815.446 476.109 815.879L478.133 815.995C482.902 816.255 487.816 816.544 492.817 816.544C498.193 816.544 502.963 816.197 507.385 815.532C517.04 814.087 525.798 813.306 534.21 813.191C538.719 813.104 543.171 812.844 548.49 812.526C558.433 811.919 568.666 811.283 578.667 812.815C580.199 813.018 581.587 812.96 583.35 812.902C583.87 812.873 584.391 812.844 584.853 812.844C589.854 812.757 595.028 812.295 599.624 811.89C606.735 811.254 614.106 810.589 621.101 811.139C621.246 811.167 639.832 812.266 641.682 811.803C644.949 810.994 683.249 813.017 703.888 814.116H704.35C724.006 815.214 727.735 815.359 728.689 815.185C730.279 814.925 732.505 814.867 735.048 814.81C737.679 814.752 740.396 814.723 742.535 814.26L743.229 814.116C747.304 813.249 747.796 812.699 751.583 808.219C752.276 807.41 752.97 806.687 753.808 805.791C755.89 803.565 757.884 801.484 759.329 797.668C761.093 793.101 765.226 753.76 765.255 753.385C765.775 747.257 765.66 737.457 765.544 728.728C765.428 717.368 765.284 705.603 766.325 700.863C767.799 693.867 768.29 686.641 767.828 679.385C767.683 677.42 767.539 675.425 767.365 673.373C766.7 665.568 766.064 658.169 768.03 650.913C768.464 649.352 768.377 647.82 768.319 646.664L768.146 642.559L768.261 642.473ZM748.49 762.345C747.796 767.173 746.755 774.457 746.062 776.914C743.46 786.164 739.731 792.09 738.373 792.783C736.609 793.708 734.904 794.749 732.794 796.021C731.464 796.83 730.163 797.64 728.458 798.593C727.446 799.172 726.174 799.865 725.452 799.952C724.035 799.952 715.45 798.391 710.854 797.553C697.673 795.183 693.626 794.547 691.979 794.893C686.949 795.876 681.775 796.917 676.543 795.818H675.473C674.577 795.876 673.681 795.963 672.785 796.021L672.005 796.079C672.005 796.079 671.976 796.079 671.947 796.079C671.513 796.079 670.415 795.674 669.75 795.414L669.316 795.24C667.495 794.575 665.414 793.824 663.304 794.258C658.563 795.211 653.881 795.472 649.024 794.98C646.683 794.749 645.006 794.46 643.503 794.2C640.121 793.593 637.202 793.072 630.004 793.968C616.101 795.674 601.821 796.194 587.166 796.657H586.414C580.199 796.888 573.782 797.061 567.683 796.079C565.053 795.645 562.191 795.587 559.185 795.876C551.525 796.657 543.402 796.888 536.089 797.119C525.22 797.437 513.976 797.755 502.76 799.663C498.367 800.414 493.279 800.588 487.18 800.241C482.208 799.952 477.237 799.75 472.207 799.547C461.801 799.143 451.019 798.709 440.497 797.379C438.04 797.061 435.352 796.917 432.519 796.917C429.397 796.917 426.449 797.09 423.963 797.293C419.569 797.639 415.002 797.755 410.955 797.842C407.631 797.929 404.307 798.015 400.983 798.218C392.282 798.68 383.408 797.842 373.031 795.529C370.834 795.067 360.399 795.211 337.823 795.732C325.799 796.021 314.728 796.252 311.461 796.136C307.559 795.934 303.223 796.05 299.407 796.136H298.916C293.626 796.252 288.163 796.339 283.48 795.818C279.925 795.414 276.109 795.472 272.409 795.5H271.889C265.848 795.529 260.182 795.587 257.031 793.651C256.02 793.044 254.43 790.326 254.285 788.939C253.938 786.019 253.91 777.377 254.112 773.966C254.574 767.057 254.054 756.015 253.013 749.887C252.406 746.418 251.655 742.111 251.395 738.093C251.077 733.093 250.383 727.832 249.198 721.039C249.024 720.056 248.996 719.276 248.938 718.351C248.938 717.744 248.88 717.137 248.851 716.443C248.562 713.176 248.417 710.026 248.446 706.528C248.446 705.603 248.331 704.707 248.215 703.927C248.128 703.377 248.042 702.655 248.071 702.51C248.533 701.701 249.574 701.354 250.354 701.209C256.135 700.082 261.483 698.145 266.715 696.238C271.369 694.532 276.167 692.798 281.081 691.786C288.279 690.312 295.332 688.173 302.529 686.005C305.507 685.109 308.484 684.184 311.49 683.346C321.781 680.426 332.736 678.576 345.021 677.68C349.935 677.333 355.254 676.379 361.237 674.761C369.215 672.564 377.482 671.118 385.749 669.673L393.352 668.315C395.259 667.968 396.849 667.216 398.381 666.522L399.393 666.06C400.405 665.626 401.387 665.164 402.717 664.528L403.353 664.239C405.001 663.458 406.706 662.678 408.469 661.984C408.903 661.811 409.279 661.666 409.597 661.55C409.597 661.637 409.626 661.753 409.655 661.84C411.071 669.76 415.407 676.09 423.269 681.785C435.467 690.659 451.221 697.654 465.472 700.573L466.512 700.776C466.802 700.834 467.119 700.891 467.38 701.007C477.381 704.967 487.672 706.037 497.615 707.077L498.309 707.164C501.575 707.511 504.871 707.858 508.281 708.349C509.351 708.523 510.623 708.696 512.039 708.523C515.248 708.118 518.456 707.8 521.694 707.482L522.561 707.395C531.782 706.47 541.321 705.516 550.686 703.117C559.358 700.891 567.423 696.469 575.401 689.618C582.252 683.75 586.616 676.321 588.756 666.927C588.9 666.291 589.16 665.626 589.42 664.904C589.623 664.961 589.825 665.019 590.027 665.077C590.316 665.164 590.837 665.308 590.952 665.366C597.398 669.384 604.365 672.303 611.273 675.194C613.759 676.235 616.245 677.275 618.702 678.374C621.477 679.617 624.368 680.686 627.143 681.727L627.547 681.871C631.074 683.172 634.225 684.357 637.26 685.803C650.499 692.046 660.731 696.816 670.444 701.209C676.485 703.955 682.642 706.644 688.163 709.014L695.505 712.223C696.112 712.483 696.719 712.743 697.326 712.974L698.251 713.35C699.263 713.755 700.275 714.159 701.257 714.622C705.478 716.645 709.409 718.64 713.109 720.663L712.935 721.328L713.282 720.75C722.763 725.924 730.597 731.185 737.419 736.879C742.535 741.157 749.935 753.067 749.386 756.16C749.154 757.518 748.836 759.773 748.461 762.374L748.49 762.345ZM397.543 387.667C401.561 389.748 406.128 390.847 410.175 391.829C411.158 392.061 412.169 392.321 413.152 392.581C416.563 393.506 419.945 394.604 424.021 395.963C429.339 397.755 434.86 399.576 440.728 400.675C441.596 400.819 442.81 401.484 443.85 402.033L444.486 402.38C454.43 407.67 463.593 411.746 472.496 414.81C478.046 416.717 481.804 418.625 485.619 423.279C486.573 424.435 487.122 425.129 486.747 426.719C485.619 427.557 481.399 429.523 479.289 429.523C475.155 429.349 468.073 428.54 462.928 427.817C460.009 427.413 456.251 426.719 452.551 426.025L447.781 425.129C445.989 424.811 444.197 424.493 442.376 424.204C438.532 423.626 434.716 423.106 430.871 422.556C426.044 421.892 421.217 420.388 416.563 418.914C413.065 417.816 408.73 416.428 404.365 415.59C388.842 412.468 373.869 406.398 363.983 402.12C361.642 401.108 359.329 400.154 357.017 399.2C351.554 396.975 346.408 394.865 341.148 391.974L339.529 391.107C336.956 389.69 334.326 388.765 331.406 387.754C329.267 387.002 327.07 386.251 325.018 385.239C323.024 384.285 321.289 383.62 319.497 382.955C317.011 382.001 314.843 381.192 312.502 379.631C311.114 378.706 309.871 378.041 308.686 377.376C306.142 375.989 304.755 375.209 303.396 372.145L304.582 369.687C305.767 367.288 306.923 364.889 308.05 362.461C308.599 361.276 309.178 360.756 311.028 360.756H311.317C317.069 360.929 322.966 362.085 328.776 364.224L330.944 365.034C337.881 367.606 345.079 370.237 352.71 371.971C358.318 373.214 362.249 374.602 367.625 376.538L371.412 377.955C373.291 378.648 375.257 379.371 376.673 379.833C379.535 380.816 382.367 381.799 385.229 382.84L388.322 383.938C391.531 385.065 394.537 386.106 397.485 387.609L397.543 387.667ZM393.872 369.601H394.016L393.872 369.63V369.601ZM440.613 369.774C441.682 367.375 443.041 365.091 444.428 362.721C445.96 360.12 447.55 357.431 448.735 354.57C449.227 353.413 450.47 352.517 452.06 352.17C456.338 351.303 460.731 350.407 465.125 349.858C467.698 349.482 469.894 351.101 472.207 352.749L472.496 352.951C474.057 354.078 474.346 355.35 474.664 357.518C475.069 360.091 476.485 362.577 477.641 364.571C481.457 371.162 479.896 377.521 477.757 384.372C477.728 384.43 477.583 384.516 477.497 384.574C477.179 384.805 476.89 384.892 476.832 384.834C476.283 383.909 475.849 382.926 475.387 381.915C475.04 381.192 474.722 380.44 474.346 379.718C473.941 377.261 472.612 375.035 470.559 373.445C468.854 371.162 466.859 369.427 464.576 368.329C460.153 366.19 455.442 365.698 450.528 366.884C450.036 366.999 449.603 367.202 449.227 367.375C449.024 367.462 448.822 367.577 448.88 367.577C446.249 367.809 443.474 368.56 440.642 369.774H440.613ZM398.121 430.072H399.566C399.74 430.216 400.116 430.679 400.347 430.997C401.012 431.806 401.792 432.818 403.093 433.396C408.845 435.795 414.915 436.2 419.772 436.518C423.472 436.778 427.287 437.356 431.045 437.963C434.514 438.512 438.416 439.119 442.087 439.38C443.561 439.669 445.006 440.044 446.423 440.42C448.302 440.912 450.441 441.432 452.58 441.779C457.263 442.53 462.639 443.34 466.946 443.773C474.144 444.467 482.035 444.669 490.967 441.374C491.256 441.259 491.574 441.172 491.921 441.056C492.817 440.796 493.886 440.449 494.898 439.9C502.645 435.795 505.507 427.528 501.893 419.781C500.506 416.862 499.089 414.81 497.355 413.22C496.575 412.526 495.852 411.832 495.1 411.139L494.493 410.56C490.071 406.369 485.533 402.062 478.913 400.27C478.133 400.183 477.381 400.154 476.601 400.125C479.058 397.64 481.688 394.749 483.972 391.338C490.157 382.088 491.198 371.306 487.093 358.327C486.284 355.784 485.099 353.153 483.249 349.771C479.983 343.817 473.999 341.88 470.704 341.273C456.713 338.643 446.365 341.967 440.006 351.159C434.34 359.368 428.53 369.341 428.357 381.221C428.357 381.25 428.357 381.308 428.357 381.337C428.154 381.279 427.952 381.221 427.75 381.134C427.403 381.019 427.056 380.874 426.709 380.701C426.709 380.787 426.709 380.874 426.709 380.961C426.449 380.845 426.189 380.73 425.929 380.643C422.489 379.226 418.904 378.215 415.465 377.203C413.615 376.683 411.736 376.134 409.915 375.555C409.221 375.324 408.441 375.064 408.498 375.295C408.469 375.093 408.585 374.37 408.672 373.734L409.076 371.046C409.915 365.034 410.782 358.819 413.065 353.067L414.597 349.164C418.182 340.059 421.882 330.636 427.374 322.369L429.137 319.68C430.149 318.148 431.161 316.616 432.259 315.142C432.403 314.969 432.808 314.448 432.664 314.39C432.779 314.39 433.126 314.506 433.646 314.68C434.832 315.084 435.988 315.576 437.289 316.096C438.618 316.645 439.948 317.194 441.335 317.686C451.424 321.212 461.541 324.739 471.658 328.179C473.652 328.872 475.791 329.335 477.93 329.566C484.29 330.289 490.649 332.341 496.979 334.393L498.078 334.74C499.089 335.058 500.072 335.376 501.055 335.694C503.107 336.33 505.16 336.966 507.212 337.602L510.131 338.498C515.855 340.232 522.966 342.371 529.643 344.713C533.892 346.216 538.315 346.736 543.98 346.476C548.634 346.245 553.288 346.1 558.375 345.956L563.232 345.811C564.128 345.811 565.111 345.753 565.573 345.898C570.371 347.314 575.43 347.632 581.009 346.91C581.327 346.881 581.529 346.852 581.674 346.852C581.703 346.967 581.76 347.112 581.847 347.343C584.767 356.998 584.882 365.872 582.194 374.428C579.419 383.215 575.777 391.454 571.065 399.576C567.885 405.011 566.643 410.821 565.428 416.428L565.139 417.729C564.157 422.181 565.111 427.066 567.857 431.893C569.938 435.564 573.493 437.848 578.349 438.657C583.842 439.611 588.727 438.108 593.236 436.345C593.814 436.113 594.421 435.882 594.768 435.766C594.884 435.911 595.028 436.113 595.202 436.316C595.462 436.662 595.693 437.067 596.069 437.703C597.283 439.755 599.104 442.819 603.151 443.687C608.151 444.756 613.123 444.294 617.546 442.299L622.286 440.16C627.085 448.861 633.82 453.399 642.376 453.688C640.468 460.308 638.242 466.002 635.496 471.494C635.063 472.361 634.311 473.286 633.473 474.269C633.039 474.789 632.606 475.31 632.201 475.83C631.565 476.668 630.871 477.478 630.091 478.374C628.414 480.339 626.507 482.536 625.235 485.224C623.096 489.763 619.511 493.058 615.956 495.949L615.465 496.295C614.684 496.874 613.904 497.481 613.181 498.434C606.966 506.557 598.179 512.02 589.681 516.934C587.513 518.177 585.402 519.478 583.263 520.75L581.934 521.559C575.17 525.693 568.203 529.942 560.717 532.832C550.686 536.706 538.748 540.753 525.856 540.146L522.677 540.001C514.467 539.654 505.998 539.307 497.673 538.382C489.897 537.486 481.659 536.33 474.259 532.63C471.253 531.127 467.177 529.335 462.292 528.872C459.691 528.641 457.06 526.965 454.43 525.288C453.563 524.739 452.724 524.19 451.857 523.698C435.323 513.928 423.732 503.782 415.378 491.844C414.482 490.601 413.47 489.3 412.372 487.999C405.55 479.992 401.416 470.743 399.653 459.7C398.699 453.659 398.237 441.519 397.948 434.032L397.803 430.101C397.803 430.101 398.034 430.101 398.179 430.101L398.121 430.072ZM375.112 259.874L376.066 261.348C377.049 261.001 378.118 260.77 378.696 260.683C381.298 260.741 383.899 260.741 386.501 260.712H386.963C391.877 260.654 398.063 260.625 403.7 261.724C409.105 262.793 414.482 263.661 420.928 264.701L428.241 265.886L428.935 266.031C429.686 266.204 430.814 266.407 432.114 266.349C441.335 265.655 453.563 255.914 456.338 247.069C457.263 244.034 458.592 240.767 459.604 238.166C460.934 234.813 462.292 231.344 463.304 227.788C465.443 220.331 469.085 213.104 472.669 205.964C475.387 200.559 478.19 194.98 480.416 189.026L481.544 185.99C483.827 179.805 486.197 173.387 489.955 167.404L490.244 166.652C492.701 157.663 497.529 149.222 502.211 141.042C503.859 138.18 505.478 135.318 507.039 132.428C510.999 125.028 515.942 117.281 522.648 108.002C527.938 100.66 533.921 96.8157 541.87 95.8618L542.882 95.486C549.79 91.7572 556.901 93.3181 565.457 95.804C570.516 97.2493 573.522 98.7235 574.967 102.51C575.199 103.175 575.719 104.505 576.817 105.603C582.223 111.009 583.263 118.206 584.449 126.56L584.535 127.196C584.738 128.497 584.911 129.768 585.113 130.665V131.936C585.056 133.15 584.998 134.682 584.795 136.128C584.391 138.816 584.131 141.533 584.102 144.164C584.102 144.337 584.102 144.482 584.102 144.684C584.102 147.401 584.217 149.916 584.506 152.315C584.564 152.778 584.651 153.24 584.795 153.934C584.853 154.223 584.94 154.57 584.969 154.57C583.87 160.727 584.188 166.681 584.535 172.78C584.709 176.018 584.882 179.4 584.738 182.608C584.477 189.777 584.131 196.946 583.813 204.114L583.321 214.723C583.061 220.157 582.772 225.794 584.564 231.691C585.345 234.205 585.605 237.125 585.72 239.409C586.241 247.965 589.941 255.249 593.496 261.233C600 272.13 608.643 277.478 619.916 277.564C622.865 277.593 625.871 277.911 628.877 278.2C631.854 278.518 635.525 278.894 639.254 278.894H640.642C646.452 278.894 652.551 280.917 658.274 282.999C659.633 283.49 660.731 284.617 661.223 286.005C661.627 287.103 661.541 288.173 661.02 289.069C652.522 303.233 642.116 313.032 629.195 319.044C623.038 321.906 616.708 324.392 610.811 326.647C608.874 327.398 606.533 327.947 603.729 328.352C595.491 329.508 588.062 330.404 580.749 331.185C578.263 331.416 575.459 331.705 573.233 331.243C566.96 329.942 560.428 329.335 553.259 329.335C549.877 329.335 546.408 329.479 542.622 329.74C536.147 330.202 529.903 328.179 523.746 326.155C520.769 325.172 517.763 324.132 514.728 323.062C506.807 320.287 498.598 317.397 490.071 315.605C479.087 313.263 468.391 309.737 457.927 306.268L450.094 303.724C449.313 303.464 448.504 303.233 447.435 302.944C445.642 302.452 443.792 301.932 442.607 301.123C430.843 293.116 417.372 289.242 404.365 285.513L402.63 285.022C391.415 281.785 382.396 276.495 375.054 268.835C373.291 267.014 372.684 265.973 372.626 264.701C372.539 262.707 372.51 262.533 374.736 261.868L375.661 261.55L375.112 259.961V259.874ZM520.769 586.742C520.798 589.69 520.913 592.639 521.029 595.616C521.231 601.022 521.463 607.15 521.087 612.931C520.942 615.07 520.682 617.209 520.422 619.435C519.959 623.25 519.439 627.557 519.67 632.009C519.613 632.009 519.584 632.038 519.526 632.066C512.502 633.888 505.333 633.83 498.193 631.951C497.904 631.864 497.644 631.748 497.326 631.604L497.182 631.546C495.939 630.997 493.337 630.101 490.909 630.621C488.972 631.055 486.92 630.39 484.55 629.609L483.278 629.205C478.74 627.817 478.971 625.852 479.087 625.042C479.347 622.874 479.491 620.591 479.52 618.076C479.549 615.792 479.52 613.538 479.433 610.994C479.347 606.889 479.231 602.64 479.694 598.651C480.792 589.228 480.561 579.718 480.301 570.179C480.185 565.467 480.04 560.582 480.127 555.726C480.127 554.628 480.185 552.604 480.214 551.592C480.937 551.65 482.266 551.824 484.723 552.373C497.153 555.119 507.674 556.217 517.763 555.668C518.688 555.61 519.266 555.668 519.613 555.697C519.642 555.899 519.67 556.217 519.67 556.651C519.67 559.657 519.931 562.577 520.277 565.785C520.682 569.774 521.087 573.532 520.567 577.232C520.22 579.776 520.422 582.233 520.595 584.227L522.272 584.083L520.624 584.661C520.682 585.383 520.74 586.077 520.769 586.713V586.742ZM475.647 643.658C478.248 644.178 480.821 644.756 483.394 645.392L483.943 645.508L484.319 643.86L484.145 645.566C493.424 647.762 502.992 650.017 513.34 648.341C514.554 648.167 516.086 648.167 517.849 648.312C526.116 648.976 533.083 646.144 538.546 639.9C539.269 639.091 539.471 639.033 539.789 638.975C541.523 638.628 543.142 638.484 545.079 638.31C552.912 637.645 559.156 639.004 564.735 642.646L566.845 644.12C573.291 648.514 575.459 654.006 573.493 660.915C571.21 668.893 566.903 675.368 560.312 680.657C553.433 686.207 545.715 689.185 535.973 690.081C531.262 690.514 526.521 691.006 521.809 691.526L515.739 692.191C509.842 692.798 503.541 693.116 497.471 691.208C494.696 690.312 491.834 690.167 489.233 690.023L489.146 691.699L488.597 689.994C487.643 689.936 486.718 689.878 485.764 689.763C479.838 689.069 473.97 687.19 468.276 685.398C464.576 684.242 460.355 682.912 456.106 681.929C455.297 681.756 454.256 681.062 453.36 680.513C452.753 680.166 452.146 679.79 451.51 679.443C450.73 679.039 449.978 678.547 449.14 678.027C447.174 676.813 445.151 675.57 442.694 674.847C436.248 672.911 431.681 668.199 427.692 663.372C423.183 657.937 425.755 648.254 430.9 643.86C438.618 637.27 447.984 634.148 455.268 632.153C457.089 631.662 458.823 630.997 460.558 630.303L461.136 630.072C461.859 629.783 462.552 629.523 463.275 629.234C463.506 630.072 463.68 630.968 463.824 631.835C464.836 638.166 469.056 642.357 475.676 643.658H475.647ZM751.293 650.595V650.769C750.86 656.55 750.426 662.533 750.975 668.604C751.033 669.239 750.975 669.875 750.975 670.511C750.918 671.552 750.86 672.708 750.975 673.98C751.698 680.368 751.062 686.959 750.484 693.318C750.224 696.035 749.964 698.752 749.819 701.441C749.588 705.112 749.068 709.043 748.692 711.934C748.114 716.356 747.507 720.865 747.391 725.49C746.379 724.652 745.368 723.814 744.356 722.976C742.737 721.646 741.119 720.287 739.529 719.015C739.095 718.669 738.662 718.322 738.141 717.83C736.58 716.501 734.846 714.998 732.562 714.073C727.995 712.251 723.631 709.65 719.41 707.164L717.965 706.297C714.236 704.1 710.363 701.874 706.2 700.082L705.073 699.591C703.685 698.984 702.125 698.29 700.361 697.856C695.881 696.787 692.036 695.052 688.625 692.595C687.325 691.67 685.793 690.861 684.145 690.341C678.797 688.606 673.652 685.889 668.709 683.288C662.87 680.195 656.858 677.015 649.978 675.05C648.706 674.703 647.319 673.864 645.758 672.911C644.457 672.13 643.128 671.321 641.596 670.656C637.086 668.69 632.548 666.782 628.01 664.875L625.206 663.69C620.552 661.724 615.927 659.787 611.331 657.735C605.087 654.96 598.699 651.751 592.716 648.658C589.912 647.213 588.149 645.479 587.426 643.455C584.304 634.581 577.106 630.881 571.152 628.656C570.689 628.482 570.227 628.367 569.707 628.222L569.418 628.135C563.434 623.626 556.959 623.048 551.958 623.048C550.108 623.048 548.229 623.135 546.408 623.25H545.715C544.269 623.366 542.824 623.424 541.408 623.481C540.685 623.481 540.02 623.597 539.124 623.742C538.893 623.77 538.662 623.828 538.459 623.828C537.621 623.886 537.043 623.857 536.667 623.886C536.667 623.568 536.667 623.106 536.696 622.499C537.563 610.936 537.476 599.403 536.494 588.216C536.031 583.013 536.031 577.723 536.06 572.116V571.046C536.06 568.907 536.06 566.797 536.06 564.687C536.06 564.311 536.06 563.935 536.118 563.531C536.378 561.565 536.002 559.773 535.684 558.183C535.598 557.692 535.28 556.131 535.28 555.87C535.569 555.726 536.725 555.726 537.737 555.726C539.587 555.784 541.552 555.726 543.547 555.003C546.726 553.789 550.051 552.806 553.519 551.795C558.693 550.263 564.041 548.673 569.128 546.158L571.354 545.06C577.164 542.198 583.177 539.221 588.813 535.232C590.981 533.7 593.38 532.399 596.358 530.751C599.913 528.815 603.584 526.82 606.88 524.016C607.891 523.149 609.452 522.426 610.897 521.733L611.505 521.444C615.436 519.565 618.702 516.876 621.448 513.263L621.824 512.743C622.98 511.211 624.165 509.621 625.466 508.552C631.652 503.377 636.277 497.22 640.757 491.237L642.607 488.809C647.81 481.958 650.99 474.414 654.141 466.956C654.863 465.222 655.586 463.516 656.338 461.811C659.402 454.815 660.471 447.618 661.454 440.68L662.061 436.634C662.61 433.223 662.321 429.841 662.061 426.777C661.916 425.042 661.801 423.453 661.801 421.892C661.801 407.93 658.361 394.575 655.037 383.389C654.892 382.955 654.777 382.522 654.488 381.683C654.17 380.758 653.881 379.862 653.852 379.226C653.505 371.682 650.759 365.12 648.099 358.761C647.348 356.998 646.625 355.263 645.96 353.5C644.573 349.829 643.359 346.042 642.145 342.371L641.769 341.302C641.307 339.828 640.815 338.353 640.324 336.908L639.977 335.839C639.63 334.711 639.254 333.439 638.503 331.965V331.907C646.278 327.89 652.638 322.311 658.997 316.443L659.662 315.836C662.119 313.61 665.443 310.546 666.773 305.979C666.917 305.487 667.351 304.794 667.784 304.447C672.987 300.14 674.548 294.099 675.676 289.705C678.046 280.571 674.23 272.737 665.414 268.748C656.395 264.643 646.914 262.851 637.375 263.458C633.589 263.69 629.889 263.198 625.813 262.62C623.038 262.244 619.858 261.811 616.679 261.724C613.961 261.637 611.187 259.99 609.481 257.388C605.521 251.433 601.041 244.669 600.954 236.923C600.954 234.466 600.462 232.095 600 229.696C599.827 228.713 599.624 227.731 599.48 226.748C598.699 220.967 598.063 214.839 599.451 209L599.566 208.595C599.74 207.959 600.058 206.803 599.827 205.444C598.699 198.969 599.191 192.118 599.711 185.441C599.971 181.799 600.289 177.666 600.289 173.503C600.289 172.231 600.289 170.959 600.318 169.659V168.791C600.405 163.155 600.52 157.316 599.075 151.332C599.046 151.188 599.104 150.667 599.162 150.176C599.248 149.511 599.364 148.875 599.393 148.21C599.48 146.042 599.624 143.846 599.798 141.244C600.202 135.232 600.607 129.017 599.798 122.686C598.815 114.998 597.716 106.297 591.877 98.8969C590.663 97.336 589.623 95.5438 588.293 93.1157C587.57 91.8439 586.848 90.572 586.067 89.3291C583.292 84.9643 578.378 79.212 568.81 79.5878C566.845 79.6456 563.723 78.5183 561.7 77.7667C555.658 75.512 549.559 75.6277 542.535 78.2003C541.061 78.7206 539.587 79.212 538.112 79.7034L537.708 79.8479C535.8 80.4549 533.892 81.0909 532.042 81.7846C521.231 85.7736 512.733 92.9134 506.085 103.637L499.928 113.523C489.955 129.595 481.948 145.146 475.444 161.016C472.467 168.3 469.085 175.729 466.137 182.262L465.761 183.1C463.217 188.65 460.616 194.402 458.159 200.097C457.494 201.686 456.8 203.247 456.049 204.895C454.112 209.231 452.088 213.74 450.614 218.596C449.863 221.053 448.678 223.424 447.261 226.285C445.758 229.263 444.226 232.356 443.243 235.766C443.156 236.055 443.012 236.345 442.781 236.778C442.26 237.848 441.567 239.293 441.538 241.114C441.509 243.426 440.353 244.843 436.653 247.126C433.011 249.352 430.38 250.364 427.085 249.41C424.888 248.774 422.691 248.485 420.35 248.167C418.847 247.965 417.459 247.762 416.101 247.415C406.793 245.132 397.427 245.132 388.351 245.132H385.634C383.813 245.132 382.02 245.132 380.286 245.103C377.396 244.987 374.996 245.508 372.568 246.028L370.227 246.519C361.96 248.109 358 252.214 356.988 260.25C356.005 268.054 358.375 274.76 364.243 280.773C373.146 289.849 384.188 296.295 397.977 300.429L404.914 302.51C409.308 303.811 413.701 305.141 418.095 306.499C413.181 314.188 409.394 322.224 405.608 330.231C404.162 333.266 402.746 336.301 401.243 339.307C396.589 348.673 393.698 358.183 392.484 368.3L392.138 368.242C390.548 368.011 388.929 367.751 387.946 367.202C384.362 365.294 380.662 364.282 377.078 363.328C374.447 362.634 372.25 362.027 370.169 361.16C365.544 359.252 360.746 357.923 356.092 356.593C349.472 354.743 344.385 353.211 339.008 350.176C337.361 349.251 334.355 348.355 332.245 347.95L328.516 347.228C324.295 346.418 319.96 345.609 315.537 345.117C310.449 344.539 303.772 344.453 297.586 348.904C294.436 351.188 290.765 354.483 290.331 359.917C290.215 361.623 289.493 363.386 288.828 365.091C288.539 365.785 288.279 366.508 288.018 367.23C285.244 375.035 287.527 377.637 292.586 382.319C293.308 382.984 293.886 383.707 294.465 384.401C295.736 385.933 297.182 387.696 299.957 388.91C301.546 389.604 302.5 390.124 303.772 390.818C304.9 391.425 306.171 392.118 308.253 393.13C312.01 394.922 314.872 396.368 315.508 396.859C320.711 400.675 324.931 402.525 329.845 404.721L331.204 405.328C333.719 406.456 336.205 407.641 339.008 408.971L339.616 409.26C347.42 412.989 355.947 415.764 364.186 418.481L365.775 419.001C366.382 419.203 367.278 419.637 368.406 420.186C369.418 420.678 370.429 421.14 371.123 421.371C373.753 422.267 376.904 423.337 380.402 424.262C381.442 424.551 381.645 424.724 381.674 424.753C381.818 424.956 381.818 425.938 381.847 426.834V427.962C382.021 430.939 381.992 433.974 381.934 436.547C381.731 447.878 384.044 466.638 388.784 479.125C391.444 486.149 394.913 492.075 399.335 497.307C400.983 499.244 402.573 501.267 404.365 503.551C406.793 506.673 409.828 510.575 413.268 514.13C423.761 524.883 434.832 533.035 447.117 539.076L448.909 539.972C453.592 542.314 458.477 544.713 464.027 546.042C464.229 546.1 464.778 546.187 464.807 546.187C464.807 546.245 464.952 546.534 464.894 547.719C464.807 551.361 464.72 556.188 464.807 561.131L464.865 563.935C465.096 577.059 465.356 590.615 463.824 603.854C463.68 605.097 463.448 606.311 463.246 607.525L463.102 608.335C462.841 609.722 462.581 611.11 462.523 612.208C462.466 612.295 462.234 612.497 461.483 613.017C458.881 614.954 455.528 615.879 451.973 616.833C436.421 621.053 424.975 627.384 416.014 636.691L414.655 638.108C412.574 640.305 410.406 642.559 408.065 644.236C404.943 646.462 401.069 648.283 397.63 649.873C394.074 651.549 390.23 653.255 385.923 653.862C381.24 654.526 376.615 655.654 372.164 656.752C369.013 657.533 365.689 658.342 362.393 658.92C357.682 659.758 352.681 660.423 347.854 661.03L346.033 661.261C343.287 661.608 340.541 661.984 337.852 662.389L337.101 662.504C326.434 664.123 315.392 665.771 304.697 669.124C298.425 671.089 291.718 672.679 285.417 674.125C277.815 675.859 270.299 678.287 263.044 680.657L262.523 680.831C258.13 682.276 252.638 684.068 247.29 685.571H247.232L247.174 685.282C246.712 683.201 246.221 681.091 246.249 679.241C246.596 662.504 247.146 645.623 247.608 630.737C247.666 629.436 247.781 628.135 247.955 626.488C248.157 624.667 248.331 622.817 248.36 620.967C248.36 618.596 248.36 616.197 248.302 613.827V612.555C248.215 609.144 248.128 605.849 248.215 602.611C248.273 600.328 248.446 598.044 248.62 595.472C248.88 591.887 249.14 587.812 248.967 583.707C248.793 579.487 249.776 574.948 250.701 570.555L251.192 568.155C252.117 563.617 252.349 559.166 251.886 554.512C251.481 550.234 251.424 545.667 251.742 540.117C252.175 532.081 251.886 523.843 251.568 517.541C251.163 509.505 251.857 501.036 252.435 494.243L252.58 492.682C252.782 490.225 252.985 487.681 252.985 485.109V484.242C252.985 479.01 253.013 474.096 253.996 469.182C254.574 466.378 254.343 463.574 254.141 461.001C254.025 459.585 253.91 458.284 253.967 457.012L254.199 451.173C254.401 445.912 254.603 440.449 255.181 435.159C256.453 423.25 255.933 411.312 255.413 399.634L255.124 392.928C254.603 379.689 254.517 366.19 254.401 353.905V350.638C254.314 346.36 254.285 342.053 254.227 337.775C255.47 332.775 255.644 327.861 255.817 323.091C255.962 319.044 256.106 314.853 256.974 310.922C257.638 307.858 257.927 304.505 257.783 300.978C257.436 292.335 257.841 283.346 258.274 274.269C258.621 266.84 258.968 259.18 258.852 251.578C258.737 243.889 257.638 236.027 256.684 229.118L255.846 222.961C255.557 220.822 255.268 218.596 255.268 216.428C255.268 202.236 255.21 187.147 255.037 172.145C254.979 167.288 254.719 162.143 254.17 155.899C253.36 146.071 253.245 135.607 253.129 127.167C253.071 122.831 252.406 116.934 251.828 111.702C251.395 107.713 250.932 103.58 250.759 100.342C250.354 92.74 250.585 84.7041 250.817 77.6222L250.874 75.7722C250.961 72.5347 251.048 69.2973 251.106 66.0598C251.192 56.7521 253.1 48.0803 256.742 40.3046C258.13 37.2984 260.038 35.2172 262.697 33.743C271.744 28.7134 281.428 25.6493 291.458 24.6665C303.136 23.5392 315.074 23.5103 326.608 23.5103H327.938C338.286 23.5103 348.75 23.0767 359.185 22.6431H359.792C363.665 22.4408 367.568 22.2963 371.412 22.1517C377.02 21.9494 393.872 21.9205 410.233 21.9205C423.587 21.9205 436.19 21.9205 440.844 21.7759L447.29 21.6025C469.75 20.9377 492.961 20.2728 515.942 18.2205C523.977 17.4979 532.187 17.469 540.136 17.4401V15.7635L540.598 17.4401C546.784 17.4401 554.502 17.4112 561.873 16.9198C566.007 16.6307 570.285 16.6018 574.36 16.544C578.436 16.4862 582.078 16.4284 585.807 16.2549C597.254 15.619 607.631 15.7057 617.517 16.4862C623.269 16.9487 629.05 16.7463 634.803 16.5151C637.462 16.3994 640.121 16.3127 642.81 16.2838L647.579 16.1971C651.048 16.1393 654.632 16.0815 658.072 16.3705C664.142 16.8619 670.097 16.7463 675.098 16.544C679.838 16.3705 684.665 16.9487 690.273 18.394C691.892 18.7986 693.511 19.1744 695.303 19.608L695.852 19.7236C699.234 20.533 702.732 21.3424 705.94 22.4408C713.08 24.8978 720.971 28.3954 725.134 35.882C726.145 37.7031 727.562 39.3797 729.123 40.6226C732.765 43.5132 735.164 47.5889 736.725 53.4568C736.985 54.4685 737.274 55.4802 737.592 56.4919C738.806 60.77 739.962 64.7879 739.008 68.7481C738.546 70.7137 738.893 72.5636 739.153 73.8933L739.326 74.8472C739.442 75.5409 739.673 76.2925 739.933 76.9862C739.933 77.044 739.991 77.1019 740.02 77.1597C738.719 83.201 739.673 88.7798 740.598 94.2142C741.003 96.6133 741.523 99.5907 741.668 102.308C741.87 106.73 742.333 111.298 742.766 115.46C743.171 119.565 743.605 123.785 743.807 127.918C744.298 138.671 745.859 149.28 748.432 159.426C748.49 159.657 748.692 160.409 748.663 160.813C748.576 162.981 748.519 165.149 748.432 167.317C748.258 173.214 748.085 179.313 747.507 185.268L747.247 187.84C746.871 191.136 746.437 195.269 746.755 199.345C746.958 201.889 746.871 204.664 746.755 207.554C746.611 211.63 746.466 215.879 747.247 220.244C745.483 230.968 746.177 241.692 746.842 252.127C747.276 259.007 747.738 266.147 747.391 273.026L747.304 274.963C746.986 281.264 746.64 287.768 748.432 294.561C749.183 297.365 749.154 300.949 748.345 304.938C747.536 308.927 747.651 312.945 747.767 316.53C747.998 324.305 747.767 332.168 747.015 339.885C746.611 344.192 746.379 348.817 746.379 353.587C746.379 356.304 745.744 359.05 745.05 361.941C744.558 364.022 743.865 366.884 743.576 369.774C743.576 369.89 743.46 370.179 743.258 370.728C742.911 371.74 742.448 373.127 742.564 374.775C743.055 381.423 742.275 388.274 741.466 395.125C740.598 402.582 739.702 410.329 740.54 418.221C740.772 420.273 740.714 421.747 740.425 422.932C738.373 431.286 740.049 439.062 741.552 445.999C742.795 451.636 743.258 457.215 743.662 462.938C744.183 470.309 744.963 477.738 745.686 484.906L745.744 485.398C746.119 489.098 746.495 492.827 746.842 496.527C747.073 499.041 747.189 501.209 747.16 503.146C747.131 506.904 747.218 510.662 747.333 514.333V514.853C747.449 518.408 747.565 522.369 747.478 526.184C747.362 532.37 747.565 538.614 747.738 544.655V545.927C747.998 552.026 748.258 559.628 748.056 566.797C747.94 570.295 748.201 573.763 748.461 577.348L748.634 579.602C748.721 581.048 748.894 582.522 749.068 583.996L749.126 584.545C749.559 588.245 749.993 591.743 749.212 595.038C748.836 596.512 748.894 598.218 749.299 599.807C751.554 608.335 751.583 617.469 751.64 626.314C751.64 629.812 751.669 633.28 751.814 636.749C751.987 641.345 751.64 646.028 751.322 650.711L751.293 650.595Z" fill="black"/>
<path d="M393.872 369.601V369.659L394.016 369.63L393.872 369.601Z" fill="black"/>
<path d="M636.45 331.676L636.421 331.647L636.364 331.705L636.45 331.676Z" fill="black"/>
</svg>
